<svg width="43" height="39" viewBox="0 0 43 39" fill="none" xmlns="http://www.w3.org/2000/svg">
<path d="M40.25 19.5H8.375V9.01871C8.3684 8.34342 8.5466 7.67918 8.8903 7.09786C9.234 6.51653 9.73013 6.04027 10.325 5.72059C10.9832 5.36479 11.733 5.21457 12.4775 5.28934C12.0985 6.43671 12.0446 7.66659 12.3216 8.84274C12.5985 10.0189 13.1957 11.0954 14.0469 11.9531L16.0344 13.9406C16.2085 14.1149 16.4153 14.2532 16.6429 14.3476C16.8705 14.4419 17.1145 14.4905 17.3609 14.4905C17.6073 14.4905 17.8513 14.4419 18.079 14.3476C18.3066 14.2532 18.5134 14.1149 18.6875 13.9406L25.3156 7.31246C25.6671 6.96085 25.8646 6.48402 25.8646 5.98684C25.8646 5.48966 25.6671 5.01283 25.3156 4.66121L23.3281 2.67371C22.2214 1.57165 20.7574 0.901216 19.2 0.783296C17.6427 0.665375 16.0944 1.10772 14.8344 2.03059C13.6985 1.5867 12.4713 1.42708 11.2597 1.56562C10.048 1.70417 8.88856 2.13668 7.88218 2.82552C6.87581 3.51437 6.05299 4.43868 5.48531 5.51806C4.91764 6.59743 4.6223 7.79917 4.625 9.01871V19.5H2.75C2.25272 19.5 1.77581 19.6975 1.42417 20.0491C1.07254 20.4008 0.875 20.8777 0.875 21.375C0.875 21.8722 1.07254 22.3492 1.42417 22.7008C1.77581 23.0524 2.25272 23.25 2.75 23.25H4.625V28.875C4.62844 30.0345 4.99076 31.1646 5.66221 32.11C6.33365 33.0554 7.28129 33.7697 8.375 34.155V36.375C8.375 36.8722 8.57254 37.3492 8.92418 37.7008C9.27581 38.0524 9.75272 38.25 10.25 38.25C10.7473 38.25 11.2242 38.0524 11.5758 37.7008C11.9275 37.3492 12.125 36.8722 12.125 36.375V34.5H30.875V36.375C30.875 36.8722 31.0725 37.3492 31.4242 37.7008C31.7758 38.0524 32.2527 38.25 32.75 38.25C33.2473 38.25 33.7242 38.0524 34.0758 37.7008C34.4275 37.3492 34.625 36.8722 34.625 36.375V34.155C35.7187 33.7697 36.6664 33.0554 37.3378 32.11C38.0092 31.1646 38.3716 30.0345 38.375 28.875V23.25H40.25C40.7473 23.25 41.2242 23.0524 41.5758 22.7008C41.9275 22.3492 42.125 21.8722 42.125 21.375C42.125 20.8777 41.9275 20.4008 41.5758 20.0491C41.2242 19.6975 40.7473 19.5 40.25 19.5ZM16.7 5.32496C17.2278 4.79919 17.9425 4.50399 18.6875 4.50399C19.4325 4.50399 20.1472 4.79919 20.675 5.32496L21.3387 5.98684L17.3619 9.96371L16.6981 9.30184C16.1707 8.7741 15.8745 8.05855 15.8745 7.31246C15.8745 6.56638 16.1707 5.85083 16.6981 5.32309L16.7 5.32496ZM34.625 28.875C34.625 29.3722 34.4275 29.8492 34.0758 30.2008C33.7242 30.5524 33.2473 30.75 32.75 30.75H10.25C9.75272 30.75 9.27581 30.5524 8.92418 30.2008C8.57254 29.8492 8.375 29.3722 8.375 28.875V23.25H34.625V28.875Z" fill="#343434"/>
</svg>
