<svg width="43" height="29" viewBox="0 0 43 29" fill="none" xmlns="http://www.w3.org/2000/svg">
<path d="M12.125 15.4375C13.2375 15.4375 14.3251 15.1076 15.2501 14.4895C16.1751 13.8714 16.8961 12.9929 17.3218 11.9651C17.7476 10.9373 17.859 9.80626 17.6419 8.71512C17.4249 7.62397 16.8891 6.6217 16.1025 5.83502C15.3158 5.04835 14.3135 4.51263 13.2224 4.29558C12.1312 4.07854 11.0002 4.18993 9.97241 4.61568C8.94457 5.04142 8.06607 5.76239 7.44798 6.68742C6.8299 7.61244 6.5 8.69998 6.5 9.8125C6.5 11.3043 7.09263 12.7351 8.14752 13.79C9.20242 14.8449 10.6332 15.4375 12.125 15.4375ZM12.125 7.9375C12.4958 7.9375 12.8584 8.04747 13.1667 8.25349C13.475 8.45952 13.7154 8.75236 13.8573 9.09497C13.9992 9.43758 14.0363 9.81458 13.964 10.1783C13.8916 10.542 13.713 10.8761 13.4508 11.1383C13.1886 11.4005 12.8545 11.5791 12.4908 11.6515C12.1271 11.7238 11.7501 11.6867 11.4075 11.5448C11.0649 11.4029 10.772 11.1625 10.566 10.8542C10.36 10.5459 10.25 10.1833 10.25 9.8125C10.25 9.31522 10.4475 8.83831 10.7992 8.48668C11.1508 8.13504 11.6277 7.9375 12.125 7.9375ZM36.5 4.1875H21.5C21.0027 4.1875 20.5258 4.38504 20.1742 4.73668C19.8225 5.08831 19.625 5.56522 19.625 6.0625V17.3125H4.625V2.3125C4.625 1.81522 4.42746 1.33831 4.07583 0.986675C3.72419 0.635044 3.24728 0.4375 2.75 0.4375C2.25272 0.4375 1.77581 0.635044 1.42417 0.986675C1.07254 1.33831 0.875 1.81522 0.875 2.3125V26.6875C0.875 27.1848 1.07254 27.6617 1.42417 28.0133C1.77581 28.365 2.25272 28.5625 2.75 28.5625C3.24728 28.5625 3.72419 28.365 4.07583 28.0133C4.42746 27.6617 4.625 27.1848 4.625 26.6875V21.0625H38.375V26.6875C38.375 27.1848 38.5725 27.6617 38.9242 28.0133C39.2758 28.365 39.7527 28.5625 40.25 28.5625C40.7473 28.5625 41.2242 28.365 41.5758 28.0133C41.9275 27.6617 42.125 27.1848 42.125 26.6875V9.8125C42.125 8.32066 41.5324 6.88992 40.4775 5.83502C39.4226 4.78013 37.9918 4.1875 36.5 4.1875ZM38.375 17.3125H23.375V7.9375H36.5C36.9973 7.9375 37.4742 8.13504 37.8258 8.48668C38.1775 8.83831 38.375 9.31522 38.375 9.8125V17.3125Z" fill="#343434"/>
</svg>
