<svg width="39" height="39" viewBox="0 0 39 39" fill="none" xmlns="http://www.w3.org/2000/svg">
<path d="M23.25 12H25.125C25.6223 12 26.0992 11.8025 26.4508 11.4508C26.8025 11.0992 27 10.6223 27 10.125C27 9.62772 26.8025 9.15081 26.4508 8.79918C26.0992 8.44754 25.6223 8.25 25.125 8.25H23.25C22.7527 8.25 22.2758 8.44754 21.9242 8.79918C21.5725 9.15081 21.375 9.62772 21.375 10.125C21.375 10.6223 21.5725 11.0992 21.9242 11.4508C22.2758 11.8025 22.7527 12 23.25 12ZM23.25 19.5H25.125C25.6223 19.5 26.0992 19.3025 26.4508 18.9508C26.8025 18.5992 27 18.1223 27 17.625C27 17.1277 26.8025 16.6508 26.4508 16.2992C26.0992 15.9475 25.6223 15.75 25.125 15.75H23.25C22.7527 15.75 22.2758 15.9475 21.9242 16.2992C21.5725 16.6508 21.375 17.1277 21.375 17.625C21.375 18.1223 21.5725 18.5992 21.9242 18.9508C22.2758 19.3025 22.7527 19.5 23.25 19.5ZM13.875 12H15.75C16.2473 12 16.7242 11.8025 17.0758 11.4508C17.4275 11.0992 17.625 10.6223 17.625 10.125C17.625 9.62772 17.4275 9.15081 17.0758 8.79918C16.7242 8.44754 16.2473 8.25 15.75 8.25H13.875C13.3777 8.25 12.9008 8.44754 12.5492 8.79918C12.1975 9.15081 12 9.62772 12 10.125C12 10.6223 12.1975 11.0992 12.5492 11.4508C12.9008 11.8025 13.3777 12 13.875 12ZM13.875 19.5H15.75C16.2473 19.5 16.7242 19.3025 17.0758 18.9508C17.4275 18.5992 17.625 18.1223 17.625 17.625C17.625 17.1277 17.4275 16.6508 17.0758 16.2992C16.7242 15.9475 16.2473 15.75 15.75 15.75H13.875C13.3777 15.75 12.9008 15.9475 12.5492 16.2992C12.1975 16.6508 12 17.1277 12 17.625C12 18.1223 12.1975 18.5992 12.5492 18.9508C12.9008 19.3025 13.3777 19.5 13.875 19.5ZM36.375 34.5H34.5V2.625C34.5 2.12772 34.3025 1.65081 33.9508 1.29917C33.5992 0.947544 33.1223 0.75 32.625 0.75H6.375C5.87772 0.75 5.40081 0.947544 5.04918 1.29917C4.69754 1.65081 4.5 2.12772 4.5 2.625V34.5H2.625C2.12772 34.5 1.65081 34.6975 1.29917 35.0492C0.947544 35.4008 0.75 35.8777 0.75 36.375C0.75 36.8723 0.947544 37.3492 1.29917 37.7008C1.65081 38.0525 2.12772 38.25 2.625 38.25H36.375C36.8723 38.25 37.3492 38.0525 37.7008 37.7008C38.0525 37.3492 38.25 36.8723 38.25 36.375C38.25 35.8777 38.0525 35.4008 37.7008 35.0492C37.3492 34.6975 36.8723 34.5 36.375 34.5ZM21.375 34.5H17.625V27H21.375V34.5ZM30.75 34.5H25.125V25.125C25.125 24.6277 24.9275 24.1508 24.5758 23.7992C24.2242 23.4475 23.7473 23.25 23.25 23.25H15.75C15.2527 23.25 14.7758 23.4475 14.4242 23.7992C14.0725 24.1508 13.875 24.6277 13.875 25.125V34.5H8.25V4.5H30.75V34.5Z" fill="#343434"/>
</svg>
