<svg width="45" height="45" viewBox="0 0 45 45" fill="none" xmlns="http://www.w3.org/2000/svg">
<path fill-rule="evenodd" clip-rule="evenodd" d="M15.8932 8.58094C12.857 8.98313 7.94141 13.4072 7.94141 19.5553H26.3464C26.3464 13.4888 21.6399 9.02813 18.5243 8.59781C18.5005 4.20469 18.5429 2.57906 27.7096 2.57906C36.2332 2.57906 37.0988 6.58688 37.0988 15.0413V43.3378C37.0988 44.1113 37.6493 44.7413 38.3799 44.7413C38.7305 44.7413 39.0667 44.5935 39.3149 44.3304C39.563 44.0673 39.7028 43.7103 39.7035 43.3378V15.0413C39.7061 6.04125 39.5367 0 27.7123 0C17.4443 0 15.9991 2.33719 15.8932 8.58094Z" fill="#343434"/>
<path fill-rule="evenodd" clip-rule="evenodd" d="M7.94141 22.5H10.4799V25.0763H7.94141V22.5Z" fill="#343434"/>
<path fill-rule="evenodd" clip-rule="evenodd" d="M15.8828 22.5H18.4213V25.0763H15.8828V22.5Z" fill="#343434"/>
<path fill-rule="evenodd" clip-rule="evenodd" d="M23.8237 22.5H26.3623V25.0763H23.8237V22.5Z" fill="#343434"/>
<path fill-rule="evenodd" clip-rule="evenodd" d="M10.5884 28.125H13.1269V30.7013H10.5884V28.125Z" fill="#343434"/>
<path fill-rule="evenodd" clip-rule="evenodd" d="M21.1768 28.125H23.7153V30.7013H21.1768V28.125Z" fill="#343434"/>
</svg>
