<svg width="45" height="45" viewBox="0 0 45 45" fill="none" xmlns="http://www.w3.org/2000/svg">
<path d="M16.875 41.25H31.875V36.5625C36.3938 33.5062 39.375 28.35 39.375 22.5V7.5C39.375 6.50544 38.9799 5.55161 38.2766 4.84835C37.5734 4.14509 36.6196 3.75 35.625 3.75H28.125C27.1304 3.75 26.1766 4.14509 25.4734 4.84835C24.7701 5.55161 24.375 6.50544 24.375 7.5V22.5H5.625C5.625 28.2937 9.375 33.75 16.875 36.5625V41.25ZM9.91875 26.25H35.0812C34.5546 28.0148 33.6632 29.6493 32.465 31.0478C31.2667 32.4463 29.7881 33.5777 28.125 34.3687V37.5H20.625V34.3687C16.875 33.75 10.9875 29.8312 9.91875 26.25ZM28.125 7.5H35.625V22.5H28.125V7.5ZM30 9.375V15H33.75V9.375H30Z" fill="#343434"/>
</svg>
