<svg width="40" height="45" viewBox="0 0 40 45" fill="none" xmlns="http://www.w3.org/2000/svg">
<g clip-path="url(#clip0)">
<path d="M36.3907 45H2.81596C2.0582 45 1.40244 44.7217 0.848692 44.165C0.294942 43.6084 0.0180664 42.9492 0.0180664 42.1875V14.0625C0.0180664 13.3008 0.294942 12.6416 0.848692 12.085C1.40244 11.5283 2.0582 11.25 2.81596 11.25H36.3907C37.1776 11.25 37.8407 11.5283 38.3799 12.085C38.919 12.6416 39.1886 13.3008 39.1886 14.0625V42.1875C39.1886 42.9785 38.919 43.645 38.3799 44.187C37.8407 44.729 37.1776 45 36.3907 45ZM19.6034 16.875C16.514 16.875 13.8764 17.9736 11.6905 20.1709C9.50469 22.3682 8.41176 25.0195 8.41176 28.125C8.41176 31.2305 9.50469 33.8818 11.6905 36.0791C13.8764 38.2764 16.514 39.375 19.6034 39.375C22.6927 39.375 25.3303 38.2764 27.5162 36.0791C29.702 33.8818 30.7949 31.2305 30.7949 28.125C30.7949 25.0195 29.702 22.3682 27.5162 20.1709C25.3303 17.9736 22.6927 16.875 19.6034 16.875ZM19.6034 36.5625C17.2718 36.5625 15.2899 35.7422 13.6578 34.1016C12.0257 32.4609 11.2097 30.4688 11.2097 28.125C11.2097 25.7813 12.0257 23.7891 13.6578 22.1484C15.2899 20.5078 17.2718 19.6875 19.6034 19.6875C21.9349 19.6875 23.9168 20.5078 25.5489 22.1484C27.181 23.7891 27.997 25.7813 27.997 28.125C27.997 30.4688 27.181 32.4609 25.5489 34.1016C23.9168 35.7422 21.9349 36.5625 19.6034 36.5625ZM36.3907 8.4375H2.81596C2.0582 8.4375 1.40244 8.15918 0.848692 7.60254C0.294942 7.0459 0.0180664 6.38672 0.0180664 5.625V2.8125C0.0180664 2.05078 0.294942 1.3916 0.848692 0.834961C1.40244 0.27832 2.0582 0 2.81596 0H36.3907C37.1776 0 37.8407 0.27832 38.3799 0.834961C38.919 1.3916 39.1886 2.05078 39.1886 2.8125V5.625C39.1886 6.41602 38.919 7.08252 38.3799 7.62451C37.8407 8.1665 37.1776 8.4375 36.3907 8.4375ZM9.81071 2.8125H7.01281C6.63393 2.8125 6.30605 2.95166 6.02918 3.22998C5.7523 3.5083 5.61386 3.83789 5.61386 4.21875C5.61386 4.59961 5.7523 4.9292 6.02918 5.20752C6.30605 5.48584 6.63393 5.625 7.01281 5.625H9.81071C10.1896 5.625 10.5175 5.48584 10.7943 5.20752C11.0712 4.9292 11.2097 4.59961 11.2097 4.21875C11.2097 3.83789 11.0712 3.5083 10.7943 3.22998C10.5175 2.95166 10.1896 2.8125 9.81071 2.8125ZM15.4065 2.8125C15.0276 2.8125 14.6997 2.95166 14.4229 3.22998C14.146 3.5083 14.0076 3.83789 14.0076 4.21875C14.0076 4.59961 14.146 4.9292 14.4229 5.20752C14.6997 5.48584 15.0276 5.625 15.4065 5.625C15.7854 5.625 16.1133 5.48584 16.3901 5.20752C16.667 4.9292 16.8055 4.59961 16.8055 4.21875C16.8055 3.83789 16.667 3.5083 16.3901 3.22998C16.1133 2.95166 15.7854 2.8125 15.4065 2.8125ZM21.0023 2.8125C20.6234 2.8125 20.2955 2.95166 20.0187 3.22998C19.7418 3.5083 19.6034 3.83789 19.6034 4.21875C19.6034 4.59961 19.7418 4.9292 20.0187 5.20752C20.2955 5.48584 20.6234 5.625 21.0023 5.625C21.3812 5.625 21.7091 5.48584 21.9859 5.20752C22.2628 4.9292 22.4012 4.59961 22.4012 4.21875C22.4012 3.83789 22.2628 3.5083 21.9859 3.22998C21.7091 2.95166 21.3812 2.8125 21.0023 2.8125Z" fill="#343434"/>
</g>
<defs>
<clipPath id="clip0">
<rect width="39.2143" height="45" fill="white"/>
</clipPath>
</defs>
</svg>
